<svg width="24" height="24" viewBox="0 0 24 24" fill="none" xmlns="http://www.w3.org/2000/svg">
<path d="M21 13V7.5C21 6.30653 21.0001 4.68198 21.0001 3C19.318 3 17.6935 3 16.5 3H7.5C6.30653 3 4.31805 3 3 3C3.00013 4.18198 3 6.30653 3 7.5V16.5C3 17.6935 3 19.318 3 21C4.68198 21 6.30653 21 7.5 21H13" stroke="white" stroke-width="1.5"/>
<path d="M3 9H21" stroke="white" stroke-width="1.5"/>
<path d="M6.4998 7.1998C7.16255 7.1998 7.6998 6.66255 7.6998 5.9998C7.6998 5.33706 7.16255 4.7998 6.4998 4.7998C5.83706 4.7998 5.2998 5.33706 5.2998 5.9998C5.2998 6.66255 5.83706 7.1998 6.4998 7.1998Z" fill="white"/>
<path d="M15 12V20.5L17.5 18L19.5 21.5L21 20.5L19 17L22 16.5L15 12Z" fill="white"/>
</svg>
